# xmcd
#
# Track frame offsets:
#	150
#	17471
#	31244
#	44968
#	62592
#	76369
#	93841
#	108278
#	119416
#	132739
#	145426
#	166964
#	181844
#
# Disc length: 2617 seconds
#
# Revision: 1
# Processed by: cddbd v1.5.1PL0 Copyright (c) Steve Scherf et al.
# Submitted via: audiograbber 1.83.01
#
DISCID=af0a370d
DTITLE=Jim and Ann McClintock - With Love at Christmas
DYEAR=2003
DGENRE=Gospel
TTITLE0=Its Christmas Again
TTITLE1=Mary's Boy Child
TTITLE2=Were You There on that Christmas Night
TTITLE3=Mary, Did You Know?
TTITLE4=Child in a Manger
TTITLE5=Go, Tell it on a Mountain
TTITLE6=Now is born the Divine Christ Child
TTITLE7=Strangers in the Streets
TTITLE8=No Room
TTITLE9=We Three Kings
TTITLE10=O Holy Night
TTITLE11=White Christmas
TTITLE12=The Christmas Song (Chestnuts Roasting)
EXTD=Ministry of the Cross 800-786-8581\n*with John Ramsey\n**with Jerry Patton
EXTT0=
EXTT1=
EXTT2=Sleeth (Duet)
EXTT3=Lowry**
EXTT4=Traditional (Duet)
EXTT5=Traditional
EXTT6=Traditional (Duet)
EXTT7=Chase (Trio)*
EXTT8=Peterson (Duet)
EXTT9=Hopkins (Trio)
EXTT10=Adam
EXTT11=Berlin
EXTT12=Torme
PLAYORDER=
